<svg xmlns="http://www.w3.org/2000/svg"  viewBox="0 0 96 96" width="96px" height="96px" baseProfile="basic"><path fill="#e0e722" d="M74.057,79.294c-2.554,0-5.591-0.096-9.273-0.211c-9.258-0.29-21.938-0.69-40.688-0.084	c-1.654,0.042-3.042-1.246-3.095-2.902c-0.004-0.138,0-0.275,0.015-0.409c-0.292,0.461-0.648,0.887-1.065,1.27	c-2.468,2.264-6.238,2.24-8.268,2.025c-1.648-0.175-2.841-1.653-2.667-3.3c0.175-1.648,1.664-2.838,3.3-2.667	c1.779,0.19,3.17-0.106,3.577-0.479c0.034-0.031,0.114-0.105,0.106-0.477L16,35c0-3.86,3.14-7,7-7h57.514	c4.749,0,7.472,2.697,7.472,7.4c0,10.886,0.029,18.672,0.051,24.533l0.013,3.681c0.035,10.502-1.189,15.472-12.52,15.668	C75.058,79.29,74.567,79.294,74.057,79.294z M23,34c-0.551,0-1,0.449-1,1v37c0.014,0.701-0.068,1.374-0.242,2.007	c0.528-0.594,1.289-0.978,2.146-1.005c18.938-0.61,31.729-0.209,41.069,0.084c4.335,0.136,7.762,0.24,10.454,0.197	c6.025-0.104,6.655-0.115,6.624-9.649l-0.013-3.679c-0.022-5.866-0.051-13.659-0.051-24.555c0-0.932-0.185-1.194-0.188-1.198l0,0	c-0.002,0-0.284-0.202-1.285-0.202H23z M81.798,34.202L81.798,34.202L81.798,34.202z" opacity=".3"/><path fill="#e0e722" d="M74.057,78.294c-2.538,0-5.568-0.095-9.242-0.211c-9.272-0.291-21.97-0.691-40.751-0.084	c-1.123,0.032-2.027-0.831-2.063-1.935c-0.036-1.104,0.831-2.028,1.935-2.063c18.907-0.609,31.68-0.209,41.005,0.084	c4.35,0.137,7.786,0.245,10.502,0.198c6.778-0.118,7.639-0.718,7.606-10.652l-0.013-3.679c-0.022-5.865-0.051-13.657-0.051-24.551	c0-1.771-0.374-2.4-2.472-2.4H23c-1.103,0-2,0.897-2,2v37c0.034,1.68-0.563,3.154-1.726,4.221c-2.179,1.999-5.627,1.964-7.486,1.768	c-1.098-0.117-1.894-1.102-1.777-2.2s1.101-1.899,2.2-1.777c1.937,0.207,3.646-0.084,4.358-0.737	c0.208-0.191,0.445-0.504,0.431-1.234L17,35c0-3.309,2.691-6,6-6h57.514c4.174,0,6.472,2.273,6.472,6.4	c0,10.887,0.029,18.675,0.051,24.536l0.013,3.681c0.034,10.278-1,14.483-11.537,14.665C75.046,78.29,74.562,78.294,74.057,78.294z" opacity=".3"/><path fill="#ffad00" d="M11,74c-1.657,0-3-1.343-3-3V22.748C8,18.186,11.104,15,15.549,15h20.934	c2.723,0,4.547,1.186,7.072,2.826c0.381,0.248,0.791,0.514,1.237,0.799l0.089,0.057c1.354,0.864,2.23,1.394,3.119,1.394	c5.262,0,15.049-0.043,20.841-0.069c2.442-0.011,4.177-0.019,4.568-0.019C77.962,19.987,80,23.007,80,26c0,1.657-1.343,3-3,3	c-1.643,0-2.977-1.32-3-2.958c-0.116-0.027-0.305-0.055-0.591-0.055c-0.39,0-2.114,0.008-4.542,0.019	C63.069,26.032,53.269,26.075,48,26.075c-2.685,0-4.714-1.295-6.345-2.335l-0.089-0.057c-0.462-0.295-0.886-0.57-1.28-0.827	C38.114,21.446,37.385,21,36.483,21H15.549C14.568,21,14,21.286,14,22.748V71C14,72.657,12.657,74,11,74z" opacity=".3"/><path fill="#ffad00" d="M11,73c-1.104,0-2-0.896-2-2V22.748C9,18.712,11.632,16,15.549,16h20.934	c2.426,0,4.058,1.06,6.527,2.665c0.383,0.249,0.795,0.517,1.245,0.803l0.089,0.057c1.304,0.832,2.431,1.55,3.656,1.55	c5.263,0,15.053-0.043,20.845-0.069c2.44-0.011,4.172-0.019,4.564-0.019c4.126,0,5.591,2.7,5.591,5.013c0,1.104-0.896,2-2,2	s-2-0.896-2-2c0-0.403,0-1.013-1.591-1.013c-0.39,0-2.116,0.008-4.546,0.019C63.065,25.032,53.268,25.075,48,25.075	c-2.393,0-4.207-1.157-5.808-2.178l-0.089-0.057c-0.459-0.293-0.881-0.567-1.273-0.822C38.522,20.519,37.664,20,36.483,20H15.549	C13.833,20,13,20.899,13,22.748V71C13,72.104,12.104,73,11,73z" opacity=".3"/><path fill="#e0e722" d="M74.057,77.294c-2.522,0-5.545-0.095-9.21-0.21C55.562,76.792,42.845,76.393,24.032,77	c-0.542,0.035-1.014-0.416-1.032-0.967c-0.018-0.552,0.415-1.014,0.967-1.032c18.874-0.609,31.628-0.208,40.942,0.084	c4.362,0.137,7.808,0.246,10.551,0.198c7.579-0.131,8.623-1.547,8.589-11.655l-0.013-3.68c-0.022-5.864-0.051-13.655-0.051-24.547	c0-2.479-0.941-3.4-3.472-3.4H23c-1.654,0-3,1.346-3,3v37c0.029,1.425-0.443,2.604-1.402,3.484c-1.96,1.798-5.342,1.653-6.704,1.51	c-0.549-0.059-0.947-0.551-0.889-1.1c0.059-0.55,0.547-0.944,1.1-0.889c2.281,0.245,4.199-0.13,5.141-0.995	c0.524-0.481,0.771-1.133,0.754-1.991V35c0-2.757,2.243-5,5-5h57.514c3.631,0,5.472,1.817,5.472,5.4	c0,10.889,0.029,18.678,0.051,24.54l0.013,3.68c0.035,10.606-1.275,13.501-10.555,13.662C75.035,77.29,74.556,77.294,74.057,77.294z"/><path fill="#ffad00" d="M11,72c-0.552,0-1-0.448-1-1V22.748C10,19.256,12.178,17,15.549,17h20.934	c2.13,0,3.58,0.942,5.982,2.503c0.386,0.25,0.8,0.52,1.251,0.808l0.09,0.057c1.436,0.917,2.676,1.708,4.194,1.708	c5.264,0,15.056-0.043,20.85-0.069c2.437-0.011,4.168-0.019,4.559-0.019C76.794,21.987,78,24.06,78,26c0,0.552-0.448,1-1,1	s-1-0.448-1-1c0-1.335-0.872-2.013-2.591-2.013c-0.39,0-2.118,0.008-4.55,0.019C63.063,24.032,53.267,24.075,48,24.075	c-2.101,0-3.712-1.027-5.27-2.021l-0.089-0.057c-0.457-0.292-0.876-0.564-1.266-0.817C39.142,19.729,38.02,19,36.483,19H15.549	C13.293,19,12,20.366,12,22.748V71C12,71.552,11.552,72,11,72z"/></svg>